<svg width="48" height="47" viewBox="0 0 48 47" fill="none" xmlns="http://www.w3.org/2000/svg">
<path d="M20.0778 3.24688C20.9482 -1.02451 27.0518 -1.02451 27.9222 3.24688V3.24688C28.5188 6.17451 31.9964 7.44024 34.3353 5.58103V5.58103C37.7476 2.86847 42.4232 6.79176 40.3444 10.6233V10.6233C38.9196 13.2495 40.77 16.4545 43.7567 16.5336V16.5336C48.1144 16.6491 49.1743 22.6599 45.1189 24.2589V24.2589C42.3394 25.3548 41.6967 28.9993 43.9338 30.9798V30.9798C47.1978 33.8693 44.146 39.1552 40.0116 37.7733V37.7733C37.1779 36.8262 34.343 39.205 34.7837 42.1601V42.1601C35.4266 46.4716 29.6912 48.5591 27.4123 44.843V44.843C25.8504 42.296 22.1496 42.296 20.5877 44.843V44.843C18.3088 48.5591 12.5734 46.4716 13.2163 42.1601V42.1601C13.657 39.205 10.8221 36.8262 7.98838 37.7733V37.7733C3.85402 39.1552 0.80225 33.8693 4.06616 30.9798V30.9798C6.30326 28.9993 5.66064 25.3548 2.88108 24.2589V24.2589C-1.17427 22.6599 -0.114397 16.6491 4.24325 16.5336V16.5336C7.23001 16.4545 9.08038 13.2495 7.65556 10.6233V10.6233C5.57676 6.79175 10.2523 2.86847 13.6647 5.58103V5.58103C16.0036 7.44024 19.4812 6.17451 20.0778 3.24688V3.24688Z" fill="white"/>
</svg>
